<svg width="51" height="51" viewBox="0 0 51 51" xmlns="http://www.w3.org/2000/svg">
    <path d="M47.6 3.4h-5.598L38.852.249A.85.85 0 0 0 38.25 0h-23.8a3.404 3.404 0 0 0-3.4 3.4v11.9h1.7V3.4a1.702 1.702 0 0 1 1.7-1.7H37.4v5.1a3.404 3.404 0 0 0 3.4 3.4h5.1v32.3a1.702 1.702 0 0 1-1.7 1.7H28.9v1.7h15.3a3.404 3.404 0 0 0 3.4-3.4V9.35a.85.85 0 0 0-.249-.601L43.702 5.1H47.6a1.702 1.702 0 0 1 1.7 1.7v39.1a1.702 1.702 0 0 1-1.7 1.7H28.9v1.7h18.7a3.404 3.404 0 0 0 3.4-3.4V6.8a3.404 3.404 0 0 0-3.4-3.4zm-8.5 3.4V2.902L44.698 8.5H40.8a1.702 1.702 0 0 1-1.7-1.7zM12.75 25.5v5.1h-1.7v-5.1h1.7zM17 5.1h-1.7V3.4H17v1.7zm3.4 0h-1.7V3.4h1.7v1.7zm3.4 0h-1.7V3.4h1.7v1.7zm3.4 29.75v13.6A2.553 2.553 0 0 1 24.65 51H2.55A2.553 2.553 0 0 1 0 48.45v-10.2h1.7v10.2c0 .47.38.85.85.85h22.1c.47 0 .85-.38.85-.85v-13.6c0-.47-.38-.85-.85-.85H2.55c-.47 0-.85.38-.85.85v1.7H0v-1.7a2.553 2.553 0 0 1 2.55-2.55h15.3v-5.1a4.25 4.25 0 1 0-8.5 0v2.55c0 .47-.38.85-.85.85H4.25a.85.85 0 0 1-.85-.85V27.2a10.107 10.107 0 0 1 3.2-7.418l1.166 1.236A8.422 8.422 0 0 0 5.1 27.2v1.7h2.55v-1.7a5.95 5.95 0 0 1 11.9 0v5.1h2.55v-5.1a8.502 8.502 0 0 0-13.136-7.126l-.928-1.424A10.201 10.201 0 0 1 23.8 27.2v5.1h.85a2.553 2.553 0 0 1 2.55 2.55zm-12.75 10.2v-1.846a2.55 2.55 0 1 0-1.7 0v1.846h1.7zm-.85-5.1a.85.85 0 1 1 0 1.7.85.85 0 0 1 0-1.7zm1.7-28.05a2.55 2.55 0 0 0 5.1 0v-1.7a2.55 2.55 0 0 0-5.1 0v1.7zm1.7-1.7a.85.85 0 0 1 1.7 0v1.7a.85.85 0 0 1-1.7 0v-1.7zm5.1-2.55h1.7v6.8h-1.7v-6.8zm5.95 0a2.553 2.553 0 0 0-2.55 2.55v1.7a2.55 2.55 0 0 0 5.1 0v-1.7a2.553 2.553 0 0 0-2.55-2.55zm.85 4.25a.85.85 0 0 1-1.7 0v-1.7a.85.85 0 0 1 1.7 0v1.7zm5.95-4.25a2.553 2.553 0 0 0-2.55 2.55v1.7a2.55 2.55 0 0 0 5.1 0v-1.7a2.553 2.553 0 0 0-2.55-2.55zm.85 4.25a.85.85 0 0 1-1.7 0v-1.7a.85.85 0 0 1 1.7 0v1.7zm-11.05 6.8v1.7a2.55 2.55 0 0 0 5.1 0v-1.7a2.55 2.55 0 0 0-5.1 0zm1.7 0a.85.85 0 0 1 1.7 0v1.7a.85.85 0 0 1-1.7 0v-1.7zm5.1-2.55h1.7v6.8h-1.7v-6.8zm5.95 0a2.553 2.553 0 0 0-2.55 2.55v1.7a2.55 2.55 0 0 0 5.1 0v-1.7a2.553 2.553 0 0 0-2.55-2.55zm.85 4.25a.85.85 0 0 1-1.7 0v-1.7a.85.85 0 0 1 1.7 0v1.7zm5.1-4.25v6.8h-1.7v-6.8h1.7zm-17 8.5h1.7v6.8h-1.7v-6.8zm3.4 2.55v1.7a2.55 2.55 0 0 0 5.1 0v-1.7a2.55 2.55 0 0 0-5.1 0zm1.7 0a.85.85 0 0 1 1.7 0v1.7a.85.85 0 0 1-1.7 0v-1.7zm10.2 0a2.55 2.55 0 0 0-5.1 0v1.7a2.55 2.55 0 0 0 5.1 0v-1.7zm-1.7 1.7a.85.85 0 0 1-1.7 0v-1.7a.85.85 0 0 1 1.7 0v1.7zM29.75 34h1.7v6.8h-1.7V34zm10.2 0h1.7v6.8h-1.7V34zm-6.8 2.55v1.7a2.55 2.55 0 0 0 5.1 0v-1.7a2.55 2.55 0 0 0-5.1 0zm3.4 0v1.7a.85.85 0 0 1-1.7 0v-1.7a.85.85 0 0 1 1.7 0z" fill="#1D89E2" fill-rule="nonzero"/>
</svg>
