<svg width="51" height="44" viewBox="0 0 51 44" xmlns="http://www.w3.org/2000/svg">
    <g fill="#ff2801" fill-rule="nonzero">
        <path d="M50.343 37.03 29.423 2.223A4.603 4.603 0 0 0 25.5 0c-1.596 0-3.1.852-3.924 2.223L.657 37.03a4.617 4.617 0 0 0-.066 4.634A4.586 4.586 0 0 0 4.581 44h41.838c1.65 0 3.179-.895 3.99-2.336a4.616 4.616 0 0 0-.066-4.634zm-2.825 2.996a1.263 1.263 0 0 1-1.099.643H4.581c-.455 0-.875-.247-1.099-.643A1.271 1.271 0 0 1 3.5 38.75L24.42 3.943c.227-.377.64-.612 1.08-.612.44 0 .853.235 1.08.612L47.5 38.75c.234.39.24.879.018 1.276z"/>
        <path d="M25.515 13.706c-1.263 0-2.248.68-2.248 1.885 0 3.678.43 8.963.43 12.641 0 .958.833 1.36 1.818 1.36.74 0 1.787-.402 1.787-1.36 0-3.678.431-8.963.431-12.64 0-1.206-1.016-1.886-2.218-1.886zM25.546 31.724c-1.355 0-2.372 1.082-2.372 2.38 0 1.267 1.017 2.38 2.372 2.38 1.263 0 2.342-1.113 2.342-2.38 0-1.298-1.079-2.38-2.342-2.38z"/>
    </g>
</svg>
