<svg width="51" height="51" viewBox="0 0 51 51" xmlns="http://www.w3.org/2000/svg">
    <g fill="#939EAA" fill-rule="nonzero">
        <path d="M48.134 0H2.865A2.868 2.868 0 0 0 0 2.865v12.94a2.87 2.87 0 0 0 2.865 2.868h2.162l.027 4.175a.996.996 0 0 0 1.585.797l6.796-4.972h7.993l3.25 4.732a.996.996 0 0 0 1.642 0l3.25-4.732h7.996l6.793 4.972a.996.996 0 0 0 1.584-.796l.03-4.176h2.162A2.87 2.87 0 0 0 51 15.805V2.865A2.869 2.869 0 0 0 48.134 0zm.873 15.805a.875.875 0 0 1-.873.876h-3.15a.996.996 0 0 0-.997.99l-.023 3.217-5.485-4.014a.996.996 0 0 0-.588-.193h-8.846a.996.996 0 0 0-.821.432l-2.725 3.969-2.726-3.969a.996.996 0 0 0-.82-.432h-8.844a.997.997 0 0 0-.588.192l-5.487 4.015-.021-3.217a.996.996 0 0 0-.997-.99h-3.15a.875.875 0 0 1-.874-.875V2.866c0-.482.392-.874.873-.874h45.27c.48 0 .872.392.872.873v12.94zM47.542 41.416a5.423 5.423 0 0 0 .781-2.81c0-3.011-2.448-5.46-5.457-5.46-3.01 0-5.46 2.449-5.46 5.46 0 1.027.286 1.989.782 2.81a5.943 5.943 0 0 0-1.898 1.388 8.121 8.121 0 0 0-4.73-4.913 7.348 7.348 0 0 0 1.33-4.224c0-4.076-3.316-7.391-7.392-7.391-4.075 0-7.39 3.315-7.39 7.391 0 1.57.492 3.026 1.33 4.224a8.122 8.122 0 0 0-4.731 4.913 5.94 5.94 0 0 0-1.897-1.388 5.424 5.424 0 0 0 .781-2.81c0-3.011-2.448-5.46-5.457-5.46-3.01 0-5.46 2.449-5.46 5.46 0 1.027.286 1.989.782 2.81C1.408 42.358 0 44.442 0 46.776v3.228c0 .55.446.996.996.996h20.03a.996.996 0 1 0 0-1.992h-4.761V45.379c0-2.81 1.995-5.263 4.704-5.877a7.352 7.352 0 0 0 4.53 1.556 7.352 7.352 0 0 0 4.53-1.557c2.708.614 4.703 3.068 4.703 5.878v3.628H29.97a.996.996 0 1 0 0 1.993h20.032c.55 0 .997-.446.997-.996v-3.227c0-2.336-1.409-4.42-3.458-5.361zM8.134 35.137a3.47 3.47 0 0 1 3.465 3.468 3.469 3.469 0 0 1-3.465 3.465 3.47 3.47 0 0 1-3.468-3.465 3.472 3.472 0 0 1 3.468-3.468zm-6.142 13.87v-2.23c0-1.774 1.228-3.329 2.915-3.773a5.432 5.432 0 0 0 3.227 1.059 5.427 5.427 0 0 0 3.226-1.06c1.686.446 2.913 2 2.913 3.774v2.23H1.993zM20.1 33.668c0-2.977 2.422-5.4 5.4-5.4 2.977 0 5.399 2.423 5.399 5.4 0 2.977-2.422 5.4-5.4 5.4a5.405 5.405 0 0 1-5.399-5.4zm22.767 1.47a3.47 3.47 0 0 1 3.465 3.468 3.469 3.469 0 0 1-3.465 3.465 3.47 3.47 0 0 1-3.468-3.465 3.472 3.472 0 0 1 3.468-3.468zm-6.142 11.64c0-1.774 1.227-3.329 2.914-3.773a5.432 5.432 0 0 0 3.228 1.059 5.427 5.427 0 0 0 3.225-1.06c1.688.446 2.916 2 2.916 3.774v2.23H36.724v-2.23z"/>
        <path d="M44.808 5.56H18.87a.996.996 0 1 0 0 1.992h25.94a.996.996 0 1 0 0-1.993zM6.189 7.552h7.406a.996.996 0 1 0 0-1.993H6.189a.996.996 0 1 0 0 1.993zM44.808 11.119h-7.403a.996.996 0 1 0 0 1.992h7.403a.996.996 0 1 0 0-1.992zM32.128 11.119H6.188a.996.996 0 1 0 0 1.992h25.94a.996.996 0 1 0 0-1.992zM25.499 49.008a.996.996 0 1 0 0 1.992h.005c.55 0 .994-.446.994-.996a.999.999 0 0 0-1-.996z"/>
    </g>
</svg>
