<svg width="45" height="51" viewBox="0 0 45 51" xmlns="http://www.w3.org/2000/svg">
    <g fill="#939EAA" fill-rule="nonzero">
        <path d="M37.852 26.184v-4.768c0-6.955-4.623-12.85-10.957-14.775V4.482A4.488 4.488 0 0 0 22.412 0a4.488 4.488 0 0 0-4.482 4.482v2.159c-6.334 1.925-10.957 7.82-10.957 14.775v4.768A23.46 23.46 0 0 1 .416 42.495a1.494 1.494 0 0 0 1.078 2.528h13.598C15.786 48.43 18.804 51 22.412 51s6.626-2.57 7.32-5.977H43.33a1.494 1.494 0 0 0 1.079-2.528 23.461 23.461 0 0 1-6.557-16.311zM20.918 4.482c0-.823.67-1.494 1.494-1.494s1.494.67 1.494 1.494V6.05a15.564 15.564 0 0 0-2.988 0V4.482zm1.494 43.53a4.49 4.49 0 0 1-4.225-2.989h8.45a4.49 4.49 0 0 1-4.225 2.989zM4.715 42.035A26.418 26.418 0 0 0 9.96 26.184v-4.768c0-6.866 5.586-12.451 12.451-12.451 6.866 0 12.451 5.585 12.451 12.451v4.768c0 5.77 1.844 11.29 5.247 15.851H4.715zM41.836 21.416a1.494 1.494 0 0 0 2.988 0A22.266 22.266 0 0 0 38.26 5.568a1.494 1.494 0 0 0-2.113 2.113 19.297 19.297 0 0 1 5.69 13.735zM1.494 22.91c.825 0 1.494-.669 1.494-1.494 0-5.188 2.02-10.066 5.69-13.735a1.494 1.494 0 1 0-2.114-2.113A22.265 22.265 0 0 0 0 21.416c0 .825.67 1.494 1.494 1.494z"/>
    </g>
</svg>
