<svg width="41" height="51" viewBox="0 0 41 51" xmlns="http://www.w3.org/2000/svg">
    <g fill="#939EAA" fill-rule="nonzero">
        <path d="M37.09 21.24h-2.02v-7.954C35.07 5.96 29.108 0 21.782 0h-3.186C11.27 0 5.31 5.96 5.31 13.286v7.955H3.29A3.293 3.293 0 0 0 0 24.53v23.18A3.293 3.293 0 0 0 3.29 51h33.8a3.293 3.293 0 0 0 3.29-3.29V24.53a3.293 3.293 0 0 0-3.29-3.29zM18.597 2.147h3.186c6.143 0 11.14 4.997 11.14 11.14v7.955h-4.226v-7.955a6.922 6.922 0 0 0-6.914-6.914h-3.186a6.922 6.922 0 0 0-6.915 6.914v7.955H7.456v-7.955c0-6.143 4.998-11.14 11.14-11.14zM26.55 21.24H13.828v-7.955c0-2.63 2.14-4.768 4.769-4.768h3.186c2.63 0 4.768 2.139 4.768 4.768v7.955zm11.683 26.47c0 .63-.513 1.143-1.144 1.143H3.29c-.631 0-1.144-.513-1.144-1.143V24.53c0-.63.513-1.144 1.143-1.144H37.09c.63 0 1.144.513 1.144 1.144v23.18z"/>
        <path d="M25.51 32.927c0-2.94-2.386-5.33-5.32-5.33s-5.321 2.39-5.321 5.33c0 1.643.764 3.19 2.035 4.192l-.96 6.29a1.072 1.072 0 0 0 1.06 1.235h6.374a1.073 1.073 0 0 0 1.048-1.304l-.95-6.221a5.356 5.356 0 0 0 2.035-4.192zm-3.734 2.76a1.073 1.073 0 0 0-.523 1.09l.874 5.721h-3.874l.873-5.721a1.073 1.073 0 0 0-.522-1.09 3.2 3.2 0 0 1-1.59-2.76 3.184 3.184 0 0 1 3.176-3.185 3.184 3.184 0 0 1 3.175 3.185 3.2 3.2 0 0 1-1.59 2.76zM35.059 39.58c-.593 0-1.073.48-1.073 1.072v5.027a1.073 1.073 0 0 0 2.145 0v-5.027c0-.592-.48-1.073-1.072-1.073zM35.059 36.426c-.593 0-1.073.48-1.073 1.073v.078a1.073 1.073 0 0 0 2.145 0v-.078c0-.593-.48-1.073-1.072-1.073zM5.32 33.591c-.591 0-1.072.48-1.072 1.073v.078a1.073 1.073 0 0 0 2.146 0v-.078c0-.592-.48-1.073-1.073-1.073zM5.32 25.49c-.591 0-1.072.48-1.072 1.072v5.027a1.073 1.073 0 0 0 2.146 0v-5.027c0-.593-.48-1.073-1.073-1.073z"/>
    </g>
</svg>
