<svg width="542" height="228" viewBox="0 0 542 228" fill="none" xmlns="http://www.w3.org/2000/svg">
<path d="M526.439 227.177V202.181H532.111V227.177H526.439ZM529.298 197.996C528.368 197.996 527.567 197.668 526.897 197.013C526.226 196.357 525.89 195.572 525.89 194.657C525.89 193.712 526.226 192.919 526.897 192.279C527.567 191.623 528.368 191.296 529.298 191.296C530.228 191.296 531.021 191.623 531.676 192.279C532.347 192.919 532.682 193.712 532.682 194.657C532.682 195.572 532.347 196.357 531.676 197.013C531.021 197.668 530.228 197.996 529.298 197.996Z" fill="#04375C"/>
<path d="M505.264 227.588C503.694 227.588 502.283 227.283 501.033 226.674C499.798 226.064 498.822 225.202 498.106 224.089C497.405 222.961 497.054 221.635 497.054 220.11V220.064C497.054 218.586 497.42 217.313 498.152 216.245C498.883 215.163 499.958 214.317 501.376 213.707C502.794 213.097 504.517 212.739 506.545 212.632L515.784 212.06V215.811L507.345 216.36C505.744 216.451 504.563 216.787 503.8 217.366C503.038 217.945 502.657 218.753 502.657 219.79V219.836C502.657 220.903 503.061 221.734 503.869 222.329C504.692 222.923 505.736 223.22 507.002 223.22C508.145 223.22 509.167 222.992 510.066 222.534C510.966 222.077 511.675 221.459 512.193 220.682C512.711 219.889 512.971 218.997 512.971 218.006V210.094C512.971 208.844 512.574 207.891 511.781 207.235C510.989 206.564 509.815 206.229 508.26 206.229C506.964 206.229 505.904 206.458 505.081 206.915C504.258 207.357 503.701 207.99 503.411 208.813L503.389 208.905H498.014L498.037 208.699C498.22 207.296 498.769 206.069 499.684 205.017C500.599 203.965 501.811 203.149 503.32 202.57C504.829 201.991 506.567 201.701 508.534 201.701C510.699 201.701 512.529 202.036 514.023 202.707C515.517 203.363 516.653 204.323 517.43 205.589C518.208 206.839 518.596 208.34 518.596 210.094V227.177H512.971V223.746H512.582C512.125 224.539 511.53 225.225 510.798 225.805C510.082 226.384 509.258 226.826 508.328 227.131C507.398 227.436 506.377 227.588 505.264 227.588Z" fill="#04375C"/>
<path d="M462.112 227.177V194.177H468.012V207.898H484.066V194.177H489.943V227.177H484.066V212.861H468.012V227.177H462.112Z" fill="#04375C"/>
<path d="M418.525 227.177V202.181H424.219V206.023H424.608C425.203 204.666 426.102 203.607 427.307 202.844C428.511 202.082 430.013 201.701 431.812 201.701C434.602 201.701 436.736 202.509 438.215 204.125C439.694 205.741 440.433 208.035 440.433 211.008V227.177H434.739V212.335C434.739 210.383 434.328 208.92 433.504 207.944C432.696 206.968 431.431 206.48 429.708 206.48C428.58 206.48 427.604 206.732 426.781 207.235C425.958 207.738 425.325 208.447 424.883 209.362C424.441 210.277 424.219 211.359 424.219 212.609V227.177H418.525Z" fill="#04375C"/>
<path d="M397.418 227.588C395.848 227.588 394.437 227.283 393.187 226.674C391.952 226.064 390.977 225.202 390.26 224.089C389.559 222.961 389.208 221.635 389.208 220.11V220.064C389.208 218.586 389.574 217.313 390.306 216.245C391.038 215.163 392.112 214.317 393.53 213.707C394.948 213.097 396.671 212.739 398.699 212.632L407.938 212.06V215.811L399.499 216.36C397.898 216.451 396.717 216.787 395.954 217.366C395.192 217.945 394.811 218.753 394.811 219.79V219.836C394.811 220.903 395.215 221.734 396.023 222.329C396.846 222.923 397.891 223.22 399.156 223.22C400.299 223.22 401.321 222.992 402.22 222.534C403.12 222.077 403.829 221.459 404.347 220.682C404.866 219.889 405.125 218.997 405.125 218.006V210.094C405.125 208.844 404.728 207.891 403.936 207.235C403.143 206.564 401.969 206.229 400.414 206.229C399.118 206.229 398.058 206.458 397.235 206.915C396.412 207.357 395.855 207.99 395.566 208.813L395.543 208.905H390.168L390.191 208.699C390.374 207.296 390.923 206.069 391.838 205.017C392.753 203.965 393.965 203.149 395.474 202.57C396.983 201.991 398.721 201.701 400.688 201.701C402.853 201.701 404.683 202.036 406.177 202.707C407.671 203.363 408.807 204.323 409.584 205.589C410.362 206.839 410.75 208.34 410.75 210.094V227.177H405.125V223.746H404.736C404.279 224.539 403.684 225.225 402.952 225.805C402.236 226.384 401.412 226.826 400.482 227.131C399.552 227.436 398.531 227.588 397.418 227.588Z" fill="#04375C"/>
<path d="M373.315 227.68C371.196 227.68 369.367 227.383 367.827 226.788C366.302 226.178 365.098 225.34 364.213 224.272C363.329 223.19 362.803 221.94 362.635 220.522V220.476H368.284L368.307 220.522C368.612 221.391 369.184 222.1 370.022 222.649C370.861 223.198 371.989 223.472 373.407 223.472C374.352 223.472 375.183 223.342 375.899 223.083C376.616 222.809 377.18 222.435 377.592 221.963C378.003 221.49 378.209 220.941 378.209 220.316V220.27C378.209 219.539 377.912 218.929 377.317 218.441C376.723 217.938 375.739 217.534 374.367 217.229L370.319 216.314C368.734 215.963 367.423 215.475 366.386 214.85C365.349 214.225 364.572 213.455 364.053 212.541C363.55 211.626 363.299 210.559 363.299 209.339V209.316C363.299 207.807 363.718 206.48 364.556 205.337C365.41 204.194 366.592 203.302 368.101 202.661C369.61 202.021 371.349 201.701 373.315 201.701C375.343 201.701 377.089 202.006 378.552 202.616C380.016 203.225 381.159 204.064 381.983 205.131C382.806 206.198 383.278 207.41 383.4 208.767V208.813H378.049L378.026 208.744C377.813 207.952 377.302 207.281 376.494 206.732C375.701 206.168 374.634 205.886 373.292 205.886C372.454 205.886 371.699 206.015 371.028 206.275C370.373 206.534 369.854 206.9 369.473 207.372C369.107 207.83 368.924 208.371 368.924 208.996V209.019C368.924 209.507 369.046 209.934 369.29 210.3C369.55 210.665 369.954 210.986 370.502 211.26C371.051 211.534 371.775 211.778 372.675 211.992L376.723 212.884C379.177 213.433 380.992 214.248 382.165 215.331C383.339 216.413 383.926 217.869 383.926 219.699V219.744C383.926 221.33 383.469 222.717 382.554 223.906C381.639 225.096 380.382 226.026 378.781 226.696C377.18 227.352 375.358 227.68 373.315 227.68Z" fill="#04375C"/>
<path d="M342.764 227.588C341.193 227.588 339.783 227.283 338.533 226.674C337.298 226.064 336.322 225.202 335.606 224.089C334.904 222.961 334.554 221.635 334.554 220.11V220.064C334.554 218.586 334.92 217.313 335.651 216.245C336.383 215.163 337.458 214.317 338.876 213.707C340.294 213.097 342.017 212.739 344.044 212.632L353.283 212.06V215.811L344.845 216.36C343.244 216.451 342.062 216.787 341.3 217.366C340.538 217.945 340.157 218.753 340.157 219.79V219.836C340.157 220.903 340.561 221.734 341.369 222.329C342.192 222.923 343.236 223.22 344.502 223.22C345.645 223.22 346.667 222.992 347.566 222.534C348.466 222.077 349.175 221.459 349.693 220.682C350.211 219.889 350.47 218.997 350.47 218.006V210.094C350.47 208.844 350.074 207.891 349.281 207.235C348.488 206.564 347.315 206.229 345.759 206.229C344.464 206.229 343.404 206.458 342.581 206.915C341.757 207.357 341.201 207.99 340.911 208.813L340.888 208.905H335.514L335.537 208.699C335.72 207.296 336.269 206.069 337.184 205.017C338.098 203.965 339.31 203.149 340.82 202.57C342.329 201.991 344.067 201.701 346.034 201.701C348.199 201.701 350.028 202.036 351.522 202.707C353.016 203.363 354.152 204.323 354.93 205.589C355.707 206.839 356.096 208.34 356.096 210.094V227.177H350.47V223.746H350.082C349.624 224.539 349.03 225.225 348.298 225.805C347.581 226.384 346.758 226.826 345.828 227.131C344.898 227.436 343.877 227.588 342.764 227.588Z" fill="#04375C"/>
<path d="M300.183 227.177L311.891 194.177H316.785V200.306H315.024L306.357 227.177H300.183ZM306.083 218.647L307.615 214.096H322.754L324.286 218.647H306.083ZM324.081 227.177L315.413 200.306V194.177H318.523L330.255 227.177H324.081Z" fill="#04375C"/>
<path d="M268.237 227.177V202.181H273.931V206.023H274.32C274.747 204.681 275.509 203.637 276.607 202.89C277.72 202.143 279.099 201.769 280.746 201.769C281.173 201.769 281.592 201.8 282.004 201.861C282.43 201.907 282.781 201.968 283.056 202.044V207.144C282.598 207.037 282.133 206.961 281.661 206.915C281.203 206.854 280.723 206.823 280.22 206.823C278.954 206.823 277.849 207.06 276.904 207.532C275.959 208.005 275.227 208.683 274.708 209.568C274.19 210.437 273.931 211.466 273.931 212.655V227.177H268.237Z" fill="#04375C"/>
<path d="M247.13 227.588C245.56 227.588 244.149 227.283 242.899 226.674C241.664 226.064 240.688 225.202 239.972 224.089C239.271 222.961 238.92 221.635 238.92 220.11V220.064C238.92 218.586 239.286 217.313 240.018 216.245C240.749 215.163 241.824 214.317 243.242 213.707C244.66 213.097 246.383 212.739 248.41 212.632L257.649 212.06V215.811L249.211 216.36C247.61 216.451 246.429 216.787 245.666 217.366C244.904 217.945 244.523 218.753 244.523 219.79V219.836C244.523 220.903 244.927 221.734 245.735 222.329C246.558 222.923 247.602 223.22 248.868 223.22C250.011 223.22 251.033 222.992 251.932 222.534C252.832 222.077 253.541 221.459 254.059 220.682C254.577 219.889 254.837 218.997 254.837 218.006V210.094C254.837 208.844 254.44 207.891 253.647 207.235C252.855 206.564 251.681 206.229 250.126 206.229C248.83 206.229 247.77 206.458 246.947 206.915C246.124 207.357 245.567 207.99 245.277 208.813L245.255 208.905H239.88L239.903 208.699C240.086 207.296 240.635 206.069 241.55 205.017C242.465 203.965 243.677 203.149 245.186 202.57C246.695 201.991 248.433 201.701 250.4 201.701C252.565 201.701 254.394 202.036 255.889 202.707C257.383 203.363 258.519 204.323 259.296 205.589C260.074 206.839 260.462 208.34 260.462 210.094V227.177H254.837V223.746H254.448C253.99 224.539 253.396 225.225 252.664 225.805C251.948 226.384 251.124 226.826 250.194 227.131C249.264 227.436 248.243 227.588 247.13 227.588Z" fill="#04375C"/>
<path d="M223.645 227.177V206.595H219.551V202.181H223.645V199.711C223.645 198.034 223.927 196.647 224.491 195.549C225.07 194.451 225.962 193.636 227.166 193.102C228.371 192.553 229.895 192.279 231.74 192.279C232.35 192.279 232.914 192.302 233.432 192.347C233.951 192.378 234.431 192.431 234.873 192.508V196.487C234.66 196.456 234.385 196.433 234.05 196.418C233.714 196.388 233.349 196.372 232.952 196.372C231.611 196.372 230.658 196.685 230.094 197.31C229.529 197.92 229.247 198.827 229.247 200.031V202.181H234.667V206.595H229.339V227.177H223.645Z" fill="#04375C"/>
<path d="M200.708 227.588C199.137 227.588 197.727 227.283 196.477 226.674C195.242 226.064 194.266 225.202 193.55 224.089C192.848 222.961 192.498 221.635 192.498 220.11V220.064C192.498 218.586 192.864 217.313 193.596 216.245C194.327 215.163 195.402 214.317 196.82 213.707C198.238 213.097 199.961 212.739 201.988 212.632L211.227 212.06V215.811L202.789 216.36C201.188 216.451 200.006 216.787 199.244 217.366C198.482 217.945 198.101 218.753 198.101 219.79V219.836C198.101 220.903 198.505 221.734 199.313 222.329C200.136 222.923 201.18 223.22 202.446 223.22C203.589 223.22 204.611 222.992 205.51 222.534C206.41 222.077 207.119 221.459 207.637 220.682C208.155 219.889 208.415 218.997 208.415 218.006V210.094C208.415 208.844 208.018 207.891 207.225 207.235C206.433 206.564 205.259 206.229 203.704 206.229C202.408 206.229 201.348 206.458 200.525 206.915C199.701 207.357 199.145 207.99 198.855 208.813L198.832 208.905H193.458L193.481 208.699C193.664 207.296 194.213 206.069 195.128 205.017C196.042 203.965 197.255 203.149 198.764 202.57C200.273 201.991 202.011 201.701 203.978 201.701C206.143 201.701 207.972 202.036 209.466 202.707C210.961 203.363 212.096 204.323 212.874 205.589C213.651 206.839 214.04 208.34 214.04 210.094V227.177H208.415V223.746H208.026C207.568 224.539 206.974 225.225 206.242 225.805C205.525 226.384 204.702 226.826 203.772 227.131C202.842 227.436 201.821 227.588 200.708 227.588Z" fill="#04375C"/>
<path d="M174.273 228C171.711 228 169.485 227.604 167.595 226.811C165.72 226.018 164.241 224.913 163.158 223.495C162.076 222.077 161.466 220.423 161.329 218.532L161.306 218.212H167.023L167.046 218.441C167.137 219.371 167.503 220.179 168.144 220.865C168.799 221.551 169.668 222.092 170.751 222.489C171.833 222.87 173.068 223.06 174.455 223.06C175.782 223.06 176.956 222.854 177.977 222.443C178.999 222.031 179.799 221.467 180.379 220.751C180.958 220.019 181.248 219.18 181.248 218.235V218.212C181.248 217.023 180.783 216.055 179.853 215.308C178.923 214.545 177.39 213.936 175.256 213.478L171.711 212.746C168.327 212.03 165.864 210.886 164.325 209.316C162.8 207.731 162.038 205.711 162.038 203.256V203.233C162.038 201.266 162.556 199.544 163.593 198.065C164.645 196.586 166.085 195.435 167.915 194.611C169.76 193.773 171.871 193.354 174.25 193.354C176.689 193.354 178.801 193.765 180.584 194.589C182.368 195.397 183.771 196.502 184.792 197.905C185.814 199.307 186.385 200.893 186.507 202.661L186.53 202.959H180.904L180.859 202.684C180.722 201.815 180.363 201.061 179.784 200.42C179.22 199.765 178.465 199.246 177.52 198.865C176.575 198.484 175.469 198.293 174.204 198.293C172.999 198.293 171.925 198.484 170.979 198.865C170.034 199.231 169.287 199.749 168.738 200.42C168.205 201.091 167.938 201.899 167.938 202.844V202.867C167.938 204.026 168.388 204.986 169.287 205.749C170.202 206.511 171.688 207.105 173.747 207.532L177.291 208.287C179.609 208.775 181.491 209.423 182.94 210.231C184.388 211.039 185.448 212.045 186.119 213.25C186.805 214.439 187.148 215.872 187.148 217.549V217.572C187.148 219.706 186.622 221.551 185.57 223.106C184.533 224.661 183.047 225.866 181.11 226.719C179.189 227.573 176.91 228 174.273 228Z" fill="#04375C"/>
<path d="M130.115 227.68C127.63 227.68 125.488 227.161 123.689 226.125C121.89 225.073 120.502 223.579 119.526 221.642C118.566 219.706 118.086 217.389 118.086 214.69V214.645C118.086 211.977 118.574 209.674 119.549 207.738C120.525 205.787 121.905 204.293 123.689 203.256C125.488 202.219 127.63 201.701 130.115 201.701C132.6 201.701 134.734 202.219 136.518 203.256C138.317 204.293 139.704 205.779 140.68 207.715C141.656 209.652 142.144 211.961 142.144 214.645V214.69C142.144 217.389 141.656 219.706 140.68 221.642C139.72 223.579 138.34 225.073 136.541 226.125C134.757 227.161 132.615 227.68 130.115 227.68ZM130.115 223.06C131.426 223.06 132.539 222.733 133.454 222.077C134.384 221.406 135.092 220.453 135.58 219.218C136.068 217.968 136.312 216.466 136.312 214.713V214.667C136.312 212.899 136.068 211.397 135.58 210.162C135.092 208.912 134.384 207.959 133.454 207.304C132.539 206.633 131.426 206.297 130.115 206.297C128.804 206.297 127.683 206.633 126.753 207.304C125.823 207.959 125.114 208.912 124.626 210.162C124.138 211.397 123.894 212.899 123.894 214.667V214.713C123.894 216.466 124.138 217.968 124.626 219.218C125.114 220.469 125.815 221.421 126.73 222.077C127.66 222.733 128.788 223.06 130.115 223.06Z" fill="#04375C"/>
<path d="M109.968 227.291C107.102 227.291 105.036 226.765 103.771 225.713C102.506 224.661 101.873 222.938 101.873 220.545V206.595H97.9851V202.181H101.873V196.052H107.659V202.181H112.918V206.595H107.659V219.195C107.659 220.43 107.918 221.338 108.436 221.917C108.97 222.481 109.824 222.763 110.997 222.763C111.409 222.763 111.745 222.755 112.004 222.74C112.278 222.71 112.583 222.679 112.918 222.649V227.039C112.522 227.116 112.065 227.177 111.546 227.222C111.043 227.268 110.517 227.291 109.968 227.291Z" fill="#04375C"/>
<path d="M73.0825 227.177V202.181H78.754V227.177H73.0825ZM75.9411 197.996C75.0111 197.996 74.2107 197.668 73.5399 197.013C72.8691 196.357 72.5337 195.572 72.5337 194.657C72.5337 193.712 72.8691 192.919 73.5399 192.279C74.2107 191.623 75.0111 191.296 75.9411 191.296C76.8711 191.296 77.6639 191.623 78.3195 192.279C78.9903 192.919 79.3257 193.712 79.3257 194.657C79.3257 195.572 78.9903 196.357 78.3195 197.013C77.6639 197.668 76.8711 197.996 75.9411 197.996Z" fill="#04375C"/>
<path d="M51.9067 227.588C50.3364 227.588 48.9261 227.283 47.676 226.674C46.441 226.064 45.4653 225.202 44.7487 224.089C44.0474 222.961 43.6968 221.635 43.6968 220.11V220.064C43.6968 218.586 44.0627 217.313 44.7945 216.245C45.5263 215.163 46.6011 214.317 48.019 213.707C49.4369 213.097 51.1596 212.739 53.1873 212.632L62.4263 212.06V215.811L53.9877 216.36C52.3869 216.451 51.2054 216.787 50.4431 217.366C49.6808 217.945 49.2996 218.753 49.2996 219.79V219.836C49.2996 220.903 49.7037 221.734 50.5117 222.329C51.335 222.923 52.3793 223.22 53.6447 223.22C54.7882 223.22 55.8096 222.992 56.7091 222.534C57.6086 222.077 58.3176 221.459 58.8359 220.682C59.3543 219.889 59.6135 218.997 59.6135 218.006V210.094C59.6135 208.844 59.2171 207.891 58.4243 207.235C57.6315 206.564 56.4576 206.229 54.9025 206.229C53.6066 206.229 52.547 206.458 51.7237 206.915C50.9005 207.357 50.344 207.99 50.0543 208.813L50.0314 208.905H44.6573L44.6801 208.699C44.8631 207.296 45.4119 206.069 46.3267 205.017C47.2414 203.965 48.4535 203.149 49.9628 202.57C51.4722 201.991 53.2102 201.701 55.1769 201.701C57.3418 201.701 59.1713 202.036 60.6654 202.707C62.1595 203.363 63.2954 204.323 64.0729 205.589C64.8504 206.839 65.2392 208.34 65.2392 210.094V227.177H59.6135V223.746H59.2247C58.7673 224.539 58.1727 225.225 57.4409 225.805C56.7244 226.384 55.9011 226.826 54.9711 227.131C54.0411 227.436 53.0196 227.588 51.9067 227.588Z" fill="#04375C"/>
<path d="M8.75439 227.177V194.177H14.6546V207.898H30.7085V194.177H36.5858V227.177H30.7085V212.861H14.6546V227.177H8.75439Z" fill="#04375C"/>
<path d="M180.211 146.818V44.5189H205.378V146.818H180.211Z" fill="#04375C"/>
<path d="M130.444 148.448C122.315 148.448 115.296 146.865 109.388 143.699C103.481 140.532 98.9197 135.948 95.7059 129.945C92.5393 123.943 90.9561 116.712 90.9561 108.252V108.11C90.9561 99.792 92.5866 92.6318 95.8477 86.6295C99.1088 80.5799 103.693 75.9719 109.601 72.8053C115.509 69.5915 122.456 67.9846 130.444 67.9846C138.478 67.9846 145.449 69.5915 151.357 72.8053C157.265 75.9719 161.849 80.5563 165.11 86.5586C168.372 92.5137 170.002 99.6975 170.002 108.11V108.252C170.002 116.759 168.395 124.014 165.181 130.016C161.968 136.019 157.407 140.603 151.499 143.77C145.638 146.889 138.62 148.448 130.444 148.448ZM130.515 129.378C133.398 129.378 135.879 128.575 137.958 126.968C140.038 125.314 141.621 122.903 142.708 119.737C143.842 116.57 144.41 112.742 144.41 108.252V108.11C144.41 103.668 143.819 99.8866 142.637 96.7673C141.503 93.6007 139.896 91.1903 137.817 89.5361C135.737 87.882 133.279 87.0549 130.444 87.0549C127.655 87.0549 125.198 87.882 123.071 89.5361C120.991 91.1903 119.361 93.6007 118.179 96.7673C117.045 99.8866 116.478 103.668 116.478 108.11V108.252C116.478 112.742 117.045 116.57 118.179 119.737C119.313 122.903 120.92 125.314 123 126.968C125.127 128.575 127.632 129.378 130.515 129.378Z" fill="#04375C"/>
<path d="M0 146.818V44.5189H44.3083C52.5792 44.5189 59.5977 45.8422 65.3637 48.4889C71.1297 51.1356 75.525 54.9874 78.5498 60.0445C81.5746 65.1016 83.087 71.2457 83.087 78.4768V78.6186C83.087 85.188 81.5037 91.0958 78.3371 96.3419C75.1706 101.588 70.9406 105.393 65.6472 107.756L86.0645 146.818H56.7856L39.2749 111.584C39.1331 111.584 38.9441 111.584 38.7078 111.584C38.5187 111.584 38.306 111.584 38.0697 111.584H26.0179V146.818H0ZM26.0179 92.7263H41.4017C46.0334 92.7263 49.6962 91.4503 52.3902 88.8981C55.1314 86.2987 56.502 82.8485 56.502 78.5477V78.4059C56.502 74.105 55.1078 70.6549 52.3193 68.0555C49.5308 65.456 45.8444 64.1563 41.2599 64.1563H26.0179V92.7263Z" fill="#04375C"/>
<path d="M218.352 146.818V44.5189H243.519V146.818H218.352Z" fill="#04375C"/>
<path d="M465.31 137.403V60.2H490.477V73.8116H490.973C492.958 68.9435 495.912 65.1862 499.835 62.5395C503.757 59.8928 508.625 58.5695 514.439 58.5695C522.946 58.5695 529.492 61.1453 534.076 66.2969C538.708 71.4012 541.024 78.5378 541.024 87.7067V137.403H515.857V93.0945C515.857 88.6992 514.817 85.2726 512.737 82.815C510.658 80.3101 507.562 79.0577 503.45 79.0577C500.804 79.0577 498.511 79.6721 496.574 80.9009C494.636 82.1297 493.123 83.8311 492.036 86.0052C490.997 88.1793 490.477 90.7078 490.477 93.5908V137.403H465.31Z" fill="#04375C"/>
<path d="M344.389 152.626C361.919 161.386 380.219 163.716 397.119 159.356C414.629 154.826 430.029 142.396 438.119 126.236C442.379 117.716 442.719 110.436 444.889 95.4059C444.961 77.3099 434.709 51.1734 418.389 36.4059C408.989 27.8997 383.289 13.9059 362.879 13.9059C331.239 13.9059 305.019 34.4759 298.329 64.5259C296.089 74.5759 296.779 90.4459 299.889 100.406C306.879 122.826 323.309 142.096 344.389 152.626Z" fill="black"/>
<path d="M364.319 137.406C375.029 140.296 389.229 138.816 399.109 133.786C407.389 129.576 416.489 119.266 419.839 110.316C422.819 102.346 423.469 89.8759 421.349 81.2559C414.349 52.8459 386.049 32.7059 358.719 36.6859C338.139 39.6859 323.109 54.2259 319.919 74.2359C318.659 82.1259 319.259 88.8459 322.059 97.9059C327.899 116.866 344.019 131.926 364.319 137.406Z" fill="white"/>
<path d="M361.389 172.966L368.389 174.696L358.889 174.706C342.939 174.716 328.239 170.726 313.869 162.496C287.689 147.486 270.119 123.946 263.989 95.6459C252.939 44.6259 289.219 -0.594096 340.729 0.0059039C348.119 0.0959039 348.879 0.245903 345.889 1.0659C334.389 4.2059 330.789 5.4559 325.439 8.1359C306.629 17.6059 291.869 35.9359 286.179 56.9059C283.489 66.7959 283.769 89.7259 286.699 100.406C289.299 109.866 296.479 125.186 301.649 132.326C316.289 152.506 337.799 167.136 361.389 172.966Z" fill="#FF2801"/>
<path d="M380.889 130.156C380.889 132.786 380.669 132.906 375.959 132.906C375.859 132.906 375.769 132.906 375.679 132.906C373.639 132.906 372.379 132.906 371.539 132.306C370.149 131.306 369.949 128.636 369.319 121.476C368.069 107.296 367.919 107.246 362.419 119.176L357.549 129.766L352.719 127.316C350.059 125.976 347.889 124.636 347.889 124.346C347.889 124.066 349.959 119.316 352.489 113.796C355.019 108.286 356.909 103.596 356.699 103.386C356.489 103.176 353.629 104.686 350.349 106.746C347.069 108.806 342.739 111.496 340.709 112.736L337.039 114.976L333.869 110.376C332.119 107.836 330.849 105.646 331.039 105.506C331.229 105.366 335.869 102.466 341.349 99.0759L351.309 92.9059H338.709C338.469 92.9059 338.239 92.9059 338.009 92.9059C330.219 92.9059 327.069 92.9059 325.789 91.3659C324.919 90.3059 324.919 88.5459 324.909 85.5859C324.899 85.4559 324.899 85.3259 324.899 85.1859L324.889 81.9659L348.839 81.4059L337.869 75.4359C331.829 72.1459 326.889 69.0959 326.889 68.6459C326.889 68.1959 327.809 66.0159 328.939 63.8159L330.979 59.8059L334.189 61.7159C339.929 65.1359 352.619 71.9059 353.299 71.9059C353.659 71.9059 350.789 67.3359 346.919 61.7459C343.049 56.1559 339.889 51.2659 339.889 50.8759C339.889 50.4859 341.659 48.9959 343.829 47.5659L347.759 44.9659L355.439 56.1859L363.109 67.4059L362.529 61.9059C362.199 58.8759 361.639 53.1459 361.269 49.1559L360.599 41.9059H365.669C365.829 41.9059 365.999 41.9059 366.159 41.9059C368.009 41.9059 369.199 41.8959 369.999 42.4459C371.499 43.4759 371.689 46.3959 372.449 54.7459C373.639 67.8859 373.819 67.9159 379.349 55.8259L384.319 44.9659L388.849 47.5859C391.349 49.0259 393.549 50.3259 393.749 50.4959C393.939 50.6559 391.829 55.5359 389.059 61.3459C386.279 67.1559 384.269 71.9059 384.569 71.9059C385.099 71.9059 397.139 64.7559 402.249 61.4059C404.459 59.9559 404.679 60.0859 407.909 64.5859C410.659 68.4159 411.009 69.4259 409.829 70.1359C409.039 70.6159 404.349 73.4559 399.409 76.4559L390.429 81.9059H415.639L416.269 85.0259C416.319 85.3059 416.369 85.5759 416.429 85.8359C417.019 88.7759 417.369 90.4859 416.679 91.4959C415.679 92.9659 412.479 92.9459 404.639 93.1259L392.389 93.4059L403.389 99.3059C409.439 102.546 414.589 105.366 414.829 105.576C415.069 105.786 414.279 107.976 413.079 110.466L410.879 114.976L401.139 109.776C395.779 106.916 390.819 104.136 390.119 103.606C387.029 101.226 388.469 104.166 394.929 113.436C398.749 118.926 401.729 123.826 401.569 124.336C401.409 124.846 399.629 126.306 397.619 127.576L393.969 129.886L386.749 119.406C382.779 113.646 379.349 109.116 379.119 109.336C378.899 109.566 379.209 113.716 379.799 118.576C380.399 123.436 380.889 128.646 380.889 130.156ZM365.389 102.246C372.009 105.736 381.639 103.096 385.329 96.7759C390.019 88.7559 386.109 77.8059 376.909 73.1559C371.389 70.3559 366.989 70.3059 361.779 72.9659C357.499 75.1459 353.929 81.0259 353.929 85.9059C353.929 91.7459 358.889 98.8159 365.389 102.246ZM376.289 98.5159C372.559 100.066 372.519 100.076 368.529 98.8759C359.639 96.2159 355.819 84.8259 361.809 78.8259C364.149 76.4959 365.609 75.9059 369.059 75.9059C376.899 75.9159 382.889 81.6459 382.889 89.1359C382.889 93.3859 380.529 96.7459 376.289 98.5159Z" fill="#808080"/>
</svg>
