<svg width="51" height="51" viewBox="0 0 51 51" xmlns="http://www.w3.org/2000/svg">
    <g fill="#1D89E2" fill-rule="nonzero">
        <path d="M2.55 41.65H6.8v5.1A4.255 4.255 0 0 0 11.05 51h28.9a4.255 4.255 0 0 0 4.25-4.25v-5.1h4.25A2.55 2.55 0 0 0 51 39.1v-8.5a2.55 2.55 0 0 0-2.55-2.55H44.2v-5.1a4.255 4.255 0 0 0-4.25-4.25v-4.25C39.95 6.47 33.48 0 25.5 0c-7.98 0-14.45 6.47-14.45 14.45v4.25a4.255 4.255 0 0 0-4.25 4.25v5.1H2.55A2.55 2.55 0 0 0 0 30.6v8.5a2.55 2.55 0 0 0 2.55 2.55zm39.95 5.1a2.55 2.55 0 0 1-2.55 2.55h-28.9a2.55 2.55 0 0 1-2.55-2.55v-5.1h34v5.1zm-29.75-32.3c0-7.042 5.708-12.75 12.75-12.75s12.75 5.708 12.75 12.75v4.25h-3.4v-4.25a9.35 9.35 0 0 0-18.7 0v4.25h-3.4v-4.25zm5.1 4.25v-4.25a7.65 7.65 0 0 1 15.3 0v4.25h-15.3zM8.5 22.95a2.55 2.55 0 0 1 2.55-2.55h28.9a2.55 2.55 0 0 1 2.55 2.55v5.1h-34v-5.1zM1.7 30.6c0-.47.38-.85.85-.85h45.9c.47 0 .85.38.85.85v8.5c0 .47-.38.85-.85.85H2.55a.85.85 0 0 1-.85-.85v-8.5z"/>
        <path d="M3.543 37.022a.85.85 0 0 0 1.179.235l1.228-.82v.963a.85.85 0 0 0 1.7 0v-.962l1.228.82a.85.85 0 0 0 .944-1.415L8.33 34.85l1.49-.993a.85.85 0 1 0-.944-1.414l-1.226.82V32.3a.85.85 0 0 0-1.7 0v.962l-1.228-.82a.85.85 0 1 0-.944 1.415l1.492.993-1.492.993a.85.85 0 0 0-.235 1.179zM12.893 37.022a.85.85 0 0 0 1.179.235l1.228-.82v.963a.85.85 0 0 0 1.7 0v-.962l1.228.82a.85.85 0 0 0 .944-1.415l-1.492-.993 1.49-.993a.85.85 0 1 0-.944-1.414l-1.226.82V32.3a.85.85 0 0 0-1.7 0v.962l-1.228-.82a.85.85 0 0 0-.944 1.415l1.492.993-1.49.993a.85.85 0 0 0-.237 1.179zM31.593 37.022a.85.85 0 0 0 1.179.235l1.228-.82v.963a.85.85 0 0 0 1.7 0v-.962l1.228.82a.85.85 0 0 0 .944-1.415l-1.492-.993 1.49-.993a.85.85 0 1 0-.944-1.414l-1.226.82V32.3a.85.85 0 0 0-1.7 0v.962l-1.228-.82a.85.85 0 1 0-.944 1.415l1.492.993-1.49.993a.85.85 0 0 0-.237 1.179zM22.243 37.022a.85.85 0 0 0 1.179.235l1.228-.82v.963a.85.85 0 0 0 1.7 0v-.962l1.228.82a.85.85 0 0 0 .944-1.415l-1.492-.993 1.49-.993a.85.85 0 1 0-.944-1.414l-1.226.82V32.3a.85.85 0 0 0-1.7 0v.962l-1.228-.82a.85.85 0 0 0-.944 1.415l1.492.993-1.49.993a.85.85 0 0 0-.237 1.179zM13.6 22.1h-2.55a.85.85 0 0 0-.85.85v2.55a.85.85 0 0 0 1.7 0v-1.7h1.7a.85.85 0 0 0 0-1.7zM41.65 38.25h5.1a.85.85 0 0 0 0-1.7h-5.1a.85.85 0 0 0 0 1.7z"/>
    </g>
</svg>
