<svg width="44" height="51" viewBox="0 0 44 51" xmlns="http://www.w3.org/2000/svg">
    <g fill="#ff2801" fill-rule="nonzero">
        <path d="M17.25 10.642h.025a1.073 1.073 0 0 0 0-2.145h-.025a1.073 1.073 0 0 0 0 2.145zM16.295 44.607h-.025a1.073 1.073 0 0 0 0 2.145h.025a1.073 1.073 0 0 0 0-2.145zM13.219 44.606H5.32a1.073 1.073 0 0 0 0 2.146h7.898a1.073 1.073 0 0 0 0-2.146z"/>
        <path d="M42.17 0H5.32c-.592 0-1.072.48-1.072 1.073v3.175H1.073C.48 4.248 0 4.728 0 5.321v44.606C0 50.52.48 51 1.073 51H37.92c.593 0 1.073-.48 1.073-1.073v-3.175h3.176c.592 0 1.072-.48 1.072-1.073V1.073C43.242.48 42.762 0 42.17 0zm-5.322 48.854H2.145V6.394h25.006v2.102h-6.825a1.073 1.073 0 0 0 0 2.146h6.825v4.376c0 .593.48 1.073 1.073 1.073h8.624v32.763zm-7.551-34.909V7.911l3.017 3.017 3.017 3.017h-6.034zm11.8 30.661h-2.103V15.061l.002-.043a1.07 1.07 0 0 0-.355-.797l-9.658-9.659a1.067 1.067 0 0 0-.137-.114 1.097 1.097 0 0 0-.118-.074l-.007-.003a1.079 1.079 0 0 0-.287-.102h-.005a1.058 1.058 0 0 0-.17-.019l-.035-.002H6.394V2.146h34.703v42.46z"/>
        <path d="M27.551 22.35a31.653 31.653 0 0 1-7.509-3.186 1.072 1.072 0 0 0-1.09 0 30.351 30.351 0 0 1-7.51 3.185c-.465.128-.788.552-.788 1.035v4.12c0 4.476 2.066 7.44 3.8 9.139 1.816 1.78 4.032 2.881 5.043 2.881 1.011 0 3.227-1.102 5.043-2.881 1.734-1.699 3.8-4.663 3.8-9.139v-4.12c0-.483-.323-.907-.789-1.035zm-8.054 15.024c-.834-.158-6.698-2.875-6.698-9.87v-3.312a32.348 32.348 0 0 0 6.699-2.865 33.535 33.535 0 0 0 6.697 2.864v3.313c0 6.996-5.864 9.712-6.698 9.87z"/>
        <path d="M22.236 26.174 18.32 30.09l-1.562-1.563a1.073 1.073 0 0 0-1.518 1.517l2.322 2.322a1.07 1.07 0 0 0 1.517 0l4.675-4.675a1.073 1.073 0 0 0-1.518-1.517z"/>
    </g>
</svg>
