<svg width="44" height="51" viewBox="0 0 44 51" xmlns="http://www.w3.org/2000/svg">
    <g fill="#939EAA" fill-rule="nonzero">
        <path d="M42.704 8.807C35.687 6.884 28.629 3.89 22.292.149a1.072 1.072 0 0 0-1.09 0C14.682 3.998 8.005 6.829.789 8.807.323 8.934 0 9.357 0 9.84v10.962c0 11.288 5.207 18.76 9.576 23.04C14.28 48.452 19.758 51 21.746 51c1.99 0 7.468-2.548 12.171-7.157 4.369-4.28 9.576-11.752 9.576-23.04V9.84c0-.483-.323-.907-.79-1.034zm-1.356 11.996c0 10.543-4.857 17.515-8.932 21.507-4.625 4.532-9.57 6.544-10.67 6.544-1.098 0-6.043-2.012-10.668-6.544-4.075-3.992-8.932-10.964-8.932-21.507V10.656c6.9-1.96 13.327-4.694 19.601-8.34 6.117 3.55 12.865 6.42 19.6 8.34v10.147z"/>
        <path d="M12.238 10.536a1.073 1.073 0 0 0-1.392-.605A87.282 87.282 0 0 1 5 11.997c-.448.14-.752.554-.752 1.023v4.143a1.073 1.073 0 0 0 2.146 0v-3.359a89.43 89.43 0 0 0 5.239-1.877c.551-.217.822-.84.605-1.391zM14.276 10.74c.144 0 .29-.03.43-.091l.02-.009a1.07 1.07 0 0 0 .549-1.412 1.075 1.075 0 0 0-1.416-.55l-.017.007a1.074 1.074 0 0 0 .434 2.054zM34.529 34.593a1.073 1.073 0 0 0-1.485.31 26.112 26.112 0 0 1-3.083 3.852c-.956.988-1.991 1.91-3.078 2.737a1.073 1.073 0 0 0 1.301 1.707 29.57 29.57 0 0 0 3.32-2.953 28.23 28.23 0 0 0 3.336-4.169 1.073 1.073 0 0 0-.311-1.484zM24.392 43.175l-.062.036a1.073 1.073 0 0 0 1.075 1.857l.071-.042a1.073 1.073 0 1 0-1.084-1.851zM14.434 23.31a3.465 3.465 0 0 0-2.466-1.02c-.932 0-1.808.362-2.467 1.02a3.493 3.493 0 0 0 0 4.934l6.334 6.335a3.466 3.466 0 0 0 2.467 1.021c.932 0 1.808-.363 2.467-1.021l13.224-13.225a3.493 3.493 0 0 0 0-4.933 3.465 3.465 0 0 0-2.467-1.022c-.932 0-1.808.363-2.467 1.022L18.302 27.178l-3.868-3.868zm16.143-5.372c.253-.253.59-.393.95-.393a1.345 1.345 0 0 1 .95 2.292L19.25 33.061c-.254.254-.591.393-.95.393s-.696-.14-.95-.393l-6.334-6.334a1.345 1.345 0 0 1 .95-2.292c.358 0 .696.14.95.393l4.625 4.626a1.073 1.073 0 0 0 1.518 0l11.516-11.516z"/>
    </g>
</svg>
