<svg width="49" height="45" viewBox="0 0 49 45" xmlns="http://www.w3.org/2000/svg">
    <g fill="#1D89E2" fill-rule="evenodd">
        <path d="m32.76 36.828-1.113-5.82a.977.977 0 0 1 .764-1.145.967.967 0 0 1 1.132.774l1.21 6.325a.986.986 0 0 1-.254.865C29.916 42.624 24.501 45 17.392 45c-7.115 0-12.536-2.367-17.12-7.173a.985.985 0 0 1-.256-.855L1.979 26.11a4.873 4.873 0 0 1 3.015-3.681l7.215-2.812a.96.96 0 0 1 1.202.457s1.249 2.41 3.906 2.41c2.686 0 4.06-2.441 4.06-2.441a.96.96 0 0 1 1.19-.425l5.847 2.314a.982.982 0 0 1 .548 1.266.963.963 0 0 1-1.251.555l-5.15-2.038c-.797 1.002-2.558 2.724-5.244 2.724-2.68 0-4.365-1.703-5.13-2.718l-6.499 2.532a2.924 2.924 0 0 0-1.809 2.21l-1.873 10.36c4.139 4.176 9.029 6.222 15.386 6.222 6.35 0 11.233-2.053 15.368-6.217z"/>
        <path d="M28.976 41.058v-6.843a.972.972 0 0 0-.966-.978.972.972 0 0 0-.966.978v6.843c0 .54.433.978.966.978a.972.972 0 0 0 .966-.978zM5.795 34.215v6.843c0 .54.433.978.966.978a.972.972 0 0 0 .966-.978v-6.843a.972.972 0 0 0-.966-.978.972.972 0 0 0-.966.978zM17.385 0c1.77 0 4.209.665 5.311 1.561 1.372 1.116 2 2.68 2.257 4.278.23 1.424.16 2.867.16 3.937 0 2.577-1.572 5.558-3.497 7.517-1.382 1.405-2.954 2.258-4.23 2.258-1.277 0-2.85-.853-4.231-2.258-1.925-1.96-3.497-4.94-3.497-7.517 0 0-.04-2.69.16-3.937.257-1.599.884-3.162 2.256-4.278C13.213.636 15.615 0 17.385 0zM11.59 9.776s-.077-2.312.135-3.623c.183-1.137.583-2.274 1.56-3.067.874-.711 2.181-1.13 4.1-1.13 1.92 0 3.227.419 4.102 1.13.976.793 1.376 1.93 1.56 3.067.21 1.31.133 2.639.133 3.623 0 2.115-1.353 4.53-2.934 6.138-.956.972-1.978 1.682-2.86 1.682-.884 0-1.906-.71-2.862-1.682-1.58-1.608-2.934-4.023-2.934-6.138zM19.301 23.287a.97.97 0 0 0-.95-.803H16.42a.97.97 0 0 0-.95.803L13.537 34.04a.987.987 0 0 0 .178.762l2.898 3.91a.962.962 0 0 0 1.545 0l2.898-3.91a.987.987 0 0 0 .177-.762l-1.932-10.753zm-2.075 1.152-1.713 9.531 1.872 2.526 1.872-2.526-1.712-9.53h-.32zM37.668 11.73c-5.864 0-10.624 4.82-10.624 10.754 0 5.935 4.76 10.753 10.624 10.753 5.864 0 10.625-4.818 10.625-10.753 0-5.935-4.76-10.753-10.625-10.753zm0 1.956c4.798 0 8.693 3.942 8.693 8.798s-3.895 8.798-8.693 8.798c-4.797 0-8.692-3.942-8.692-8.798s3.895-8.798 8.692-8.798z"/>
        <path d="m36.648 24.957 5.116-6.042a.958.958 0 0 1 1.362-.106.986.986 0 0 1 .105 1.379l-5.795 6.843a.961.961 0 0 1-1.417.055l-2.897-2.933a.987.987 0 0 1 0-1.383.958.958 0 0 1 1.366 0l2.16 2.187z"/>
    </g>
</svg>
